<mxfile host="app.diagrams.net" agent="Mozilla/5.0 (Windows NT 10.0; Win64; x64) AppleWebKit/537.36 (KHTML, like Gecko) Chrome/136.0.0.0 Safari/537.36" version="26.3.0">
  <diagram name="Page-1" id="97916047-d0de-89f5-080d-49f4d83e522f">
    <mxGraphModel dx="1489" dy="803" grid="1" gridSize="10" guides="1" tooltips="1" connect="1" arrows="1" fold="1" page="1" pageScale="1.5" pageWidth="1169" pageHeight="827" background="none" math="0" shadow="0">
      <root>
        <mxCell id="0" />
        <mxCell id="1" parent="0" />
        <mxCell id="UONUeq1JZ6-N2juaygmk-62" style="edgeStyle=orthogonalEdgeStyle;rounded=0;orthogonalLoop=1;jettySize=auto;html=1;" edge="1" parent="1" source="2" target="UONUeq1JZ6-N2juaygmk-61">
          <mxGeometry relative="1" as="geometry" />
        </mxCell>
        <mxCell id="UONUeq1JZ6-N2juaygmk-75" style="edgeStyle=orthogonalEdgeStyle;rounded=0;orthogonalLoop=1;jettySize=auto;html=1;exitX=1;exitY=0.5;exitDx=0;exitDy=0;entryX=0.5;entryY=0;entryDx=0;entryDy=0;" edge="1" parent="1" source="2" target="UONUeq1JZ6-N2juaygmk-71">
          <mxGeometry relative="1" as="geometry" />
        </mxCell>
        <mxCell id="UONUeq1JZ6-N2juaygmk-82" style="edgeStyle=orthogonalEdgeStyle;rounded=0;orthogonalLoop=1;jettySize=auto;html=1;exitX=0.5;exitY=1;exitDx=0;exitDy=0;" edge="1" parent="1" source="2" target="UONUeq1JZ6-N2juaygmk-79">
          <mxGeometry relative="1" as="geometry" />
        </mxCell>
        <mxCell id="2" value="CEO (Berta Castillo)" style="rounded=1;fillColor=#10739E;strokeColor=none;shadow=1;gradientColor=none;fontStyle=1;fontColor=#FFFFFF;fontSize=14;" parent="1" vertex="1">
          <mxGeometry x="925" y="70" width="200" height="60" as="geometry" />
        </mxCell>
        <mxCell id="3" value="Departamento de producción" style="rounded=1;fillColor=#10739E;strokeColor=none;shadow=1;gradientColor=none;fontStyle=1;fontColor=#FFFFFF;fontSize=14;" parent="1" vertex="1">
          <mxGeometry x="420" y="320" width="220" height="60" as="geometry" />
        </mxCell>
        <mxCell id="4" value="Jefe de producción" style="rounded=1;fillColor=#10739E;strokeColor=none;shadow=1;gradientColor=none;fontStyle=1;fontColor=#FFFFFF;fontSize=14;" parent="1" vertex="1">
          <mxGeometry x="435" y="440" width="190" height="60" as="geometry" />
        </mxCell>
        <mxCell id="UONUeq1JZ6-N2juaygmk-58" style="edgeStyle=orthogonalEdgeStyle;rounded=0;orthogonalLoop=1;jettySize=auto;html=1;entryX=0;entryY=0.5;entryDx=0;entryDy=0;" edge="1" parent="1" source="14" target="4">
          <mxGeometry relative="1" as="geometry" />
        </mxCell>
        <mxCell id="14" value="Operarios de confección" style="rounded=1;fillColor=#10739E;strokeColor=none;shadow=1;gradientColor=none;fontStyle=1;fontColor=#FFFFFF;fontSize=14;" parent="1" vertex="1">
          <mxGeometry x="270" y="540" width="200" height="60" as="geometry" />
        </mxCell>
        <mxCell id="29" value="" style="edgeStyle=elbowEdgeStyle;elbow=vertical;strokeWidth=4;endArrow=block;endFill=1;fontStyle=1;strokeColor=#23445D;" parent="1" source="2" target="3" edge="1">
          <mxGeometry x="22" y="165.5" width="100" height="100" as="geometry">
            <mxPoint x="22" y="265.5" as="sourcePoint" />
            <mxPoint x="122" y="165.5" as="targetPoint" />
          </mxGeometry>
        </mxCell>
        <mxCell id="31" value="" style="edgeStyle=elbowEdgeStyle;elbow=vertical;strokeWidth=4;endArrow=block;endFill=1;fontStyle=1;strokeColor=#23445D;" parent="1" source="3" target="4" edge="1">
          <mxGeometry x="22" y="165.5" width="100" height="100" as="geometry">
            <mxPoint x="22" y="265.5" as="sourcePoint" />
            <mxPoint x="122" y="165.5" as="targetPoint" />
          </mxGeometry>
        </mxCell>
        <mxCell id="38" value="" style="edgeStyle=elbowEdgeStyle;elbow=vertical;strokeWidth=4;endArrow=block;endFill=1;fontStyle=1;strokeColor=#23445D;" parent="1" target="9" edge="1">
          <mxGeometry x="62" y="165.5" width="100" height="100" as="geometry">
            <mxPoint x="382" y="685.5" as="sourcePoint" />
            <mxPoint x="162" y="165.5" as="targetPoint" />
          </mxGeometry>
        </mxCell>
        <mxCell id="UONUeq1JZ6-N2juaygmk-59" style="edgeStyle=orthogonalEdgeStyle;rounded=0;orthogonalLoop=1;jettySize=auto;html=1;entryX=1;entryY=0.5;entryDx=0;entryDy=0;" edge="1" parent="1" source="UONUeq1JZ6-N2juaygmk-57" target="4">
          <mxGeometry relative="1" as="geometry" />
        </mxCell>
        <mxCell id="UONUeq1JZ6-N2juaygmk-57" value="Operarios de confección" style="rounded=1;fillColor=#10739E;strokeColor=none;shadow=1;gradientColor=none;fontStyle=1;fontColor=#FFFFFF;fontSize=14;" vertex="1" parent="1">
          <mxGeometry x="560" y="540" width="200" height="60" as="geometry" />
        </mxCell>
        <mxCell id="UONUeq1JZ6-N2juaygmk-68" style="edgeStyle=orthogonalEdgeStyle;rounded=0;orthogonalLoop=1;jettySize=auto;html=1;entryX=0.5;entryY=0;entryDx=0;entryDy=0;" edge="1" parent="1" source="UONUeq1JZ6-N2juaygmk-61" target="UONUeq1JZ6-N2juaygmk-65">
          <mxGeometry relative="1" as="geometry" />
        </mxCell>
        <mxCell id="UONUeq1JZ6-N2juaygmk-61" value="Departamento de ventas&#xa; Marketing" style="rounded=1;fillColor=#10739E;strokeColor=none;shadow=1;gradientColor=none;fontStyle=1;fontColor=#FFFFFF;fontSize=14;" vertex="1" parent="1">
          <mxGeometry x="915" y="330" width="220" height="60" as="geometry" />
        </mxCell>
        <mxCell id="UONUeq1JZ6-N2juaygmk-65" value="Coordinador de Ventas" style="rounded=1;fillColor=#10739E;strokeColor=none;shadow=1;gradientColor=none;fontStyle=1;fontColor=#FFFFFF;fontSize=14;" vertex="1" parent="1">
          <mxGeometry x="930" y="430" width="190" height="60" as="geometry" />
        </mxCell>
        <mxCell id="UONUeq1JZ6-N2juaygmk-69" style="edgeStyle=orthogonalEdgeStyle;rounded=0;orthogonalLoop=1;jettySize=auto;html=1;exitX=0.5;exitY=0;exitDx=0;exitDy=0;entryX=0;entryY=0.5;entryDx=0;entryDy=0;" edge="1" parent="1" source="UONUeq1JZ6-N2juaygmk-66" target="UONUeq1JZ6-N2juaygmk-65">
          <mxGeometry relative="1" as="geometry" />
        </mxCell>
        <mxCell id="UONUeq1JZ6-N2juaygmk-66" value="Vendedores" style="rounded=1;fillColor=#10739E;strokeColor=none;shadow=1;gradientColor=none;fontStyle=1;fontColor=#FFFFFF;fontSize=14;" vertex="1" parent="1">
          <mxGeometry x="810" y="540" width="190" height="60" as="geometry" />
        </mxCell>
        <mxCell id="UONUeq1JZ6-N2juaygmk-70" style="edgeStyle=orthogonalEdgeStyle;rounded=0;orthogonalLoop=1;jettySize=auto;html=1;exitX=0.5;exitY=0;exitDx=0;exitDy=0;entryX=1;entryY=0.5;entryDx=0;entryDy=0;" edge="1" parent="1" source="UONUeq1JZ6-N2juaygmk-67" target="UONUeq1JZ6-N2juaygmk-65">
          <mxGeometry relative="1" as="geometry" />
        </mxCell>
        <mxCell id="UONUeq1JZ6-N2juaygmk-67" value="Comunity Manager" style="rounded=1;fillColor=#10739E;strokeColor=none;shadow=1;gradientColor=none;fontStyle=1;fontColor=#FFFFFF;fontSize=14;" vertex="1" parent="1">
          <mxGeometry x="1070" y="540" width="190" height="60" as="geometry" />
        </mxCell>
        <mxCell id="UONUeq1JZ6-N2juaygmk-76" style="edgeStyle=orthogonalEdgeStyle;rounded=0;orthogonalLoop=1;jettySize=auto;html=1;exitX=0.5;exitY=1;exitDx=0;exitDy=0;entryX=0.5;entryY=0;entryDx=0;entryDy=0;" edge="1" parent="1" source="UONUeq1JZ6-N2juaygmk-71" target="UONUeq1JZ6-N2juaygmk-72">
          <mxGeometry relative="1" as="geometry" />
        </mxCell>
        <mxCell id="UONUeq1JZ6-N2juaygmk-71" value="Departamento de logística" style="rounded=1;fillColor=#10739E;strokeColor=none;shadow=1;gradientColor=none;fontStyle=1;fontColor=#FFFFFF;fontSize=14;" vertex="1" parent="1">
          <mxGeometry x="1440" y="330" width="220" height="60" as="geometry" />
        </mxCell>
        <mxCell id="UONUeq1JZ6-N2juaygmk-77" style="edgeStyle=orthogonalEdgeStyle;rounded=0;orthogonalLoop=1;jettySize=auto;html=1;entryX=0;entryY=0.5;entryDx=0;entryDy=0;" edge="1" parent="1" source="UONUeq1JZ6-N2juaygmk-72" target="UONUeq1JZ6-N2juaygmk-73">
          <mxGeometry relative="1" as="geometry" />
        </mxCell>
        <mxCell id="UONUeq1JZ6-N2juaygmk-78" style="edgeStyle=orthogonalEdgeStyle;rounded=0;orthogonalLoop=1;jettySize=auto;html=1;entryX=1;entryY=0.5;entryDx=0;entryDy=0;" edge="1" parent="1" source="UONUeq1JZ6-N2juaygmk-72" target="UONUeq1JZ6-N2juaygmk-74">
          <mxGeometry relative="1" as="geometry" />
        </mxCell>
        <mxCell id="UONUeq1JZ6-N2juaygmk-72" value="Coordinador logístico" style="rounded=1;fillColor=#10739E;strokeColor=none;shadow=1;gradientColor=none;fontStyle=1;fontColor=#FFFFFF;fontSize=14;" vertex="1" parent="1">
          <mxGeometry x="1440" y="440" width="220" height="60" as="geometry" />
        </mxCell>
        <mxCell id="UONUeq1JZ6-N2juaygmk-73" value="Auxiliar de almacen" style="rounded=1;fillColor=#10739E;strokeColor=none;shadow=1;gradientColor=none;fontStyle=1;fontColor=#FFFFFF;fontSize=14;" vertex="1" parent="1">
          <mxGeometry x="1320" y="540" width="220" height="60" as="geometry" />
        </mxCell>
        <mxCell id="UONUeq1JZ6-N2juaygmk-74" value="Repartidores" style="rounded=1;fillColor=#10739E;strokeColor=none;shadow=1;gradientColor=none;fontStyle=1;fontColor=#FFFFFF;fontSize=14;" vertex="1" parent="1">
          <mxGeometry x="1580" y="540" width="220" height="60" as="geometry" />
        </mxCell>
        <mxCell id="UONUeq1JZ6-N2juaygmk-83" style="edgeStyle=orthogonalEdgeStyle;rounded=0;orthogonalLoop=1;jettySize=auto;html=1;entryX=0.5;entryY=0;entryDx=0;entryDy=0;" edge="1" parent="1" source="UONUeq1JZ6-N2juaygmk-79" target="UONUeq1JZ6-N2juaygmk-80">
          <mxGeometry relative="1" as="geometry" />
        </mxCell>
        <mxCell id="UONUeq1JZ6-N2juaygmk-85" style="edgeStyle=orthogonalEdgeStyle;rounded=0;orthogonalLoop=1;jettySize=auto;html=1;exitX=0.5;exitY=1;exitDx=0;exitDy=0;" edge="1" parent="1" source="UONUeq1JZ6-N2juaygmk-79" target="UONUeq1JZ6-N2juaygmk-81">
          <mxGeometry relative="1" as="geometry" />
        </mxCell>
        <mxCell id="UONUeq1JZ6-N2juaygmk-79" value="Departamento Administrativo" style="rounded=1;fillColor=#10739E;strokeColor=none;shadow=1;gradientColor=none;fontStyle=1;fontColor=#FFFFFF;fontSize=14;" vertex="1" parent="1">
          <mxGeometry x="1980" y="300" width="220" height="60" as="geometry" />
        </mxCell>
        <mxCell id="UONUeq1JZ6-N2juaygmk-80" value="Contador" style="rounded=1;fillColor=#10739E;strokeColor=none;shadow=1;gradientColor=none;fontStyle=1;fontColor=#FFFFFF;fontSize=14;" vertex="1" parent="1">
          <mxGeometry x="1890" y="475" width="180" height="50" as="geometry" />
        </mxCell>
        <mxCell id="UONUeq1JZ6-N2juaygmk-81" value="Asistente Administrativo" style="rounded=1;fillColor=#10739E;strokeColor=none;shadow=1;gradientColor=none;fontStyle=1;fontColor=#FFFFFF;fontSize=14;" vertex="1" parent="1">
          <mxGeometry x="2140" y="475" width="220" height="60" as="geometry" />
        </mxCell>
      </root>
    </mxGraphModel>
  </diagram>
</mxfile>
